{
	"patcher" : 	{
		"fileversion" : 1,
		"appversion" : 		{
			"major" : 7,
			"minor" : 3,
			"revision" : 5,
			"architecture" : "x86",
			"modernui" : 1
		}
,
		"rect" : [ 824.0, 135.0, 1062.0, 766.0 ],
		"editing_bgcolor" : [ 0.9, 0.9, 0.9, 1.0 ],
		"bglocked" : 0,
		"openinpresentation" : 0,
		"default_fontsize" : 12.0,
		"default_fontface" : 0,
		"default_fontname" : "Arial",
		"gridonopen" : 1,
		"gridsize" : [ 15.0, 15.0 ],
		"gridsnaponopen" : 1,
		"objectsnaponopen" : 1,
		"statusbarvisible" : 2,
		"toolbarvisible" : 1,
		"lefttoolbarpinned" : 0,
		"toptoolbarpinned" : 0,
		"righttoolbarpinned" : 0,
		"bottomtoolbarpinned" : 0,
		"toolbars_unpinned_last_save" : 0,
		"tallnewobj" : 0,
		"boxanimatetime" : 200,
		"enablehscroll" : 1,
		"enablevscroll" : 1,
		"devicewidth" : 0.0,
		"description" : "",
		"digest" : "",
		"tags" : "",
		"style" : "",
		"subpatcher_template" : "",
		"boxes" : [ 			{
				"box" : 				{
					"id" : "obj-20",
					"maxclass" : "newobj",
					"numinlets" : 0,
					"numoutlets" : 1,
					"outlettype" : [ "" ],
					"patching_rect" : [ 875.0, -1.0, 30.0, 22.0 ],
					"style" : "",
					"text" : "in 3"
				}

			}
, 			{
				"box" : 				{
					"code" : "Data looper(441000);\r\nHistory offset(0);\r\nHistory index(0);\r\nHistory fader(0);\r\nHistory oldState(0);\r\nfadeTime=2205;\r\n\r\n\r\nSTOPPED = 0;\r\nRECORDING = 1;\r\nPLAYING = 2;\r\nlen = dim(looper);\r\n\r\nstate = in2;\r\nlength = in3;\r\n\r\nif(state!=oldState && state==RECORDING){ // flip to recording\r\n\toffset = index;\r\n}\r\noldState = state;\r\nread = 0;\r\n\r\nif(index>=len){\r\n\t\r\n\tindex=0;\r\n}\r\nposition = mod(index+len-offset,len);\r\nif(state != RECORDING && length>0){\r\n\tposition = position%length;\r\n\tindex = mod(offset+position,len);\r\n \tfadeOut = peek(looper, index);\r\n\tfadeIn = peek(looper,mod(index+len-length,len));\r\n\tt = clamp(-(position-length)/fadeTime,0,1)*2-1;\r\n\tread = fadeOut*sqrt(0.5*(1+t))+fadeIn*sqrt(0.5*(1-t));\r\n}\r\n\r\nif(state != PLAYING){\r\n\tpoke(looper,in1, index);\r\n}\r\n\r\nif(state == PLAYING){\r\n\tfader=min(fadeTime,fader+1);\r\n}else if(state==STOPPED){\r\n\tfader=max(0,fader-1);\r\n}\r\n\r\nout1 = read*(fader/fadeTime);\r\n\r\nindex = index+1;\r\n",
					"fontface" : 0,
					"fontname" : "Arial",
					"fontsize" : 12.0,
					"id" : "obj-16",
					"maxclass" : "codebox",
					"numinlets" : 3,
					"numoutlets" : 1,
					"outlettype" : [ "" ],
					"patching_rect" : [ 113.0, 54.0, 743.0, 391.0 ],
					"style" : ""
				}

			}
, 			{
				"box" : 				{
					"id" : "obj-13",
					"maxclass" : "newobj",
					"numinlets" : 0,
					"numoutlets" : 1,
					"outlettype" : [ "" ],
					"patching_rect" : [ 151.0, 14.0, 30.0, 22.0 ],
					"style" : "",
					"text" : "in 2"
				}

			}
, 			{
				"box" : 				{
					"id" : "obj-1",
					"maxclass" : "newobj",
					"numinlets" : 0,
					"numoutlets" : 1,
					"outlettype" : [ "" ],
					"patching_rect" : [ 50.0, 14.0, 30.0, 22.0 ],
					"style" : "",
					"text" : "in 1"
				}

			}
, 			{
				"box" : 				{
					"id" : "obj-4",
					"maxclass" : "newobj",
					"numinlets" : 1,
					"numoutlets" : 0,
					"patching_rect" : [ 162.0, 485.0, 37.0, 22.0 ],
					"style" : "",
					"text" : "out 1"
				}

			}
 ],
		"lines" : [ 			{
				"patchline" : 				{
					"destination" : [ "obj-16", 0 ],
					"source" : [ "obj-1", 0 ]
				}

			}
, 			{
				"patchline" : 				{
					"destination" : [ "obj-16", 1 ],
					"source" : [ "obj-13", 0 ]
				}

			}
, 			{
				"patchline" : 				{
					"destination" : [ "obj-4", 0 ],
					"source" : [ "obj-16", 0 ]
				}

			}
, 			{
				"patchline" : 				{
					"destination" : [ "obj-16", 2 ],
					"source" : [ "obj-20", 0 ]
				}

			}
 ],
		"autosave" : 0
	}

}
